<?xml version="1.0" standalone="no"?>
<!DOCTYPE svg PUBLIC "-//W3C//DTD SVG 20010904//EN"
 "http://www.w3.org/TR/2001/REC-SVG-20010904/DTD/svg10.dtd">
<svg version="1.0" xmlns="http://www.w3.org/2000/svg"
 width="512.000000pt" height="512.000000pt" viewBox="0 0 512.000000 512.000000"
 preserveAspectRatio="xMidYMid meet">

<g transform="translate(0.000000,512.000000) scale(0.100000,-0.100000)"
fill="#000000" stroke="none">
<path d="M639 4142 c-151 -40 -267 -160 -303 -312 -14 -56 -16 -224 -16 -1268
0 -1345 -3 -1288 69 -1399 64 -99 151 -161 261 -187 57 -14 290 -16 1910 -16
1620 0 1853 2 1910 16 110 26 197 88 261 187 72 111 69 54 69 1399 0 1044 -2
1212 -16 1268 -26 110 -88 197 -187 261 -113 73 18 69 -2044 68 -1710 0 -1853
-1 -1914 -17z m1307 -1059 c-4 -10 -109 -276 -234 -590 l-227 -573 -172 0
-173 0 -6 28 c-4 15 -62 240 -129 501 l-121 475 -39 24 c-22 14 -80 43 -130
64 -170 74 -180 68 110 65 253 -2 261 -3 297 -25 69 -43 74 -57 144 -404 35
-178 67 -334 70 -348 5 -19 41 78 140 375 74 220 136 406 139 413 3 9 47 12
171 12 154 0 166 -1 160 -17z m431 -10 c-2 -16 -44 -281 -93 -590 l-88 -563
-156 0 -156 0 92 588 c50 323 92 588 93 590 1 1 71 2 157 2 l157 0 -6 -27z
m805 -5 c48 -11 90 -24 94 -29 4 -8 -28 -198 -41 -236 -3 -9 -25 -2 -72 20
-62 29 -76 32 -163 32 -132 -1 -180 -28 -180 -103 0 -40 37 -70 159 -132 120
-60 192 -116 228 -177 24 -41 28 -59 28 -123 -1 -93 -31 -159 -111 -237 -60
-58 -183 -124 -279 -148 -111 -28 -313 -14 -422 30 -24 10 -43 21 -43 25 0 12
51 224 54 228 2 2 20 -4 40 -12 96 -40 278 -58 358 -35 92 25 121 99 63 159
-16 17 -79 56 -139 87 -187 95 -249 175 -250 323 -2 151 83 258 250 319 119
44 263 47 426 9z m872 24 c5 -9 236 -1145 236 -1162 0 -6 -57 -10 -139 -10
-158 0 -138 -13 -161 103 l-11 57 -192 0 -192 0 -29 -80 -28 -80 -155 0 c-138
0 -154 2 -149 16 3 9 117 274 252 590 l246 574 159 0 c87 0 160 -4 163 -8z"/>
<path d="M3767 2532 c-42 -114 -77 -210 -77 -214 0 -5 54 -8 120 -8 66 0 120
3 120 8 0 12 -80 415 -83 418 -1 2 -37 -90 -80 -204z"/>
</g>
</svg>
